<svg xmlns="http://www.w3.org/2000/svg" viewBox="0 0 365.06 83"><defs><style>.cls-1{fill:#3d21a3;}.cls-2{fill:#9025c1;}.cls-3{fill:#d82ac8;}.cls-4{fill:#ff768d;}.cls-5{fill:#ffce00;}.cls-6{fill:#0a0a56;}</style></defs><g id="Layer_2" data-name="Layer 2"><g id="Layer_1-2" data-name="Layer 1"><polygon class="cls-1" points="17.98 31.14 17.98 72.63 11.67 68.99 0 62.26 0 20.75 17.98 31.14"/><polygon class="cls-2" points="35.94 41.51 35.94 83 18.02 72.65 17.98 72.63 17.98 31.14 35.94 41.51"/><polygon class="cls-3" points="35.94 20.73 35.94 41.51 17.98 31.14 17.98 10.37 35.94 20.73"/><polygon class="cls-4" points="53.91 31.14 53.91 72.63 35.94 83 35.94 20.75 53.91 31.14"/><polygon class="cls-5" points="71.88 20.75 71.88 62.28 60.22 68.99 53.91 72.63 53.91 31.12 35.94 20.75 35.94 0 71.88 20.75"/><path class="cls-6" d="M115.13,62.69,106,47h-8.4V62.69H90.52V19.51h17.27a13.79,13.79,0,0,1,13.88,13.88,12.91,12.91,0,0,1-2.38,7.55,13.6,13.6,0,0,1-6.2,5l9.81,16.78ZM97.61,26.17V40.6h10.18a6.35,6.35,0,0,0,4.81-2.09,7.18,7.18,0,0,0,2-5.12,7.17,7.17,0,0,0-2-5.12,6.36,6.36,0,0,0-4.81-2.1Z"/><path class="cls-6" d="M131.53,50.1a8.48,8.48,0,0,0,3.4,5.4,10.92,10.92,0,0,0,6.47,1.88q5.31,0,8-3.82l5.49,3.2q-4.56,6.74-13.51,6.73-7.51,0-12.15-4.6a15.71,15.71,0,0,1-4.63-11.62,15.9,15.9,0,0,1,4.57-11.57A15.71,15.71,0,0,1,140.85,31,14.44,14.44,0,0,1,152,35.79a16.47,16.47,0,0,1,4.35,11.54,19.72,19.72,0,0,1-.25,2.77Zm-.06-5.42h18.14a8.58,8.58,0,0,0-8.82-7.59,9.4,9.4,0,0,0-6.17,2A9.21,9.21,0,0,0,131.47,44.68Z"/><path class="cls-6" d="M181.87,31.84h7.27l-12,30.85h-7.71l-12-30.85h7.28l8.64,23.51Z"/><path class="cls-6" d="M206.66,63.49a15.79,15.79,0,0,1-11.53-4.69,15.55,15.55,0,0,1-4.75-11.53,15.57,15.57,0,0,1,4.75-11.54,16.57,16.57,0,0,1,23.1,0A15.62,15.62,0,0,1,223,47.27a15.6,15.6,0,0,1-4.72,11.53A15.77,15.77,0,0,1,206.66,63.49Zm-6.84-9.25a9.84,9.84,0,0,0,13.69,0,9.47,9.47,0,0,0,2.78-7,9.45,9.45,0,0,0-2.78-7,9.82,9.82,0,0,0-13.69,0,9.45,9.45,0,0,0-2.78,7A9.47,9.47,0,0,0,199.82,54.24Z"/><path class="cls-6" d="M246.39,19.51a19.46,19.46,0,0,1,14.77,6.23,21.48,21.48,0,0,1,5.89,15.36,21.5,21.5,0,0,1-5.89,15.32,19.42,19.42,0,0,1-14.77,6.27h-17V19.51Zm0,36.39a12.93,12.93,0,0,0,10-4.19A15.09,15.09,0,0,0,260.2,41.1a15,15,0,0,0-3.85-10.64,13,13,0,0,0-10-4.17h-9.87V55.9Z"/><path class="cls-6" d="M297.52,31.84h6.66V62.69h-6.66V58.24q-3.76,5.25-10.79,5.25a14.48,14.48,0,0,1-10.86-4.72,16.05,16.05,0,0,1-4.5-11.5,16,16,0,0,1,4.5-11.54A14.53,14.53,0,0,1,286.73,31q7,0,10.79,5.18ZM280.81,54.33a10.08,10.08,0,0,0,13.94,0,9.63,9.63,0,0,0,2.77-7.06,9.64,9.64,0,0,0-2.77-7.07,10.08,10.08,0,0,0-13.94,0A9.61,9.61,0,0,0,278,47.27,9.6,9.6,0,0,0,280.81,54.33Z"/><path class="cls-6" d="M329.17,38.26h-7.65v14.8a3.69,3.69,0,0,0,.86,2.75,3.88,3.88,0,0,0,2.56.92,40.47,40.47,0,0,0,4.23,0v6q-7.65.91-11-1.33c-2.22-1.5-3.34-4.27-3.34-8.3V38.26h-5.67V31.84h5.67V25.18l6.67-2v8.63h7.65Z"/><path class="cls-6" d="M358.4,31.84h6.66V62.69H358.4V58.24q-3.76,5.25-10.79,5.25a14.48,14.48,0,0,1-10.86-4.72,16.05,16.05,0,0,1-4.5-11.5,16,16,0,0,1,4.5-11.54A14.53,14.53,0,0,1,347.61,31q7,0,10.79,5.18ZM341.69,54.33a10.08,10.08,0,0,0,13.94,0,9.63,9.63,0,0,0,2.77-7.06,9.64,9.64,0,0,0-2.77-7.07,10.08,10.08,0,0,0-13.94,0,9.61,9.61,0,0,0-2.78,7.07A9.6,9.6,0,0,0,341.69,54.33Z"/></g></g></svg>