<svg xmlns="http://www.w3.org/2000/svg" viewBox="0 0 218.14 147.97"><defs><style>.cls-1{fill:#3d21a3;}.cls-2{fill:#9025c1;}.cls-3{fill:#d82ac8;}.cls-4{fill:#ff768d;}.cls-5{fill:#ffce00;}.cls-6{fill:#fff;}</style></defs><g id="Layer_2" data-name="Layer 2"><g id="Layer_1-2" data-name="Layer 1"><polygon class="cls-1" points="88.58 35.52 88.58 82.84 81.39 78.69 68.08 71.02 68.08 23.67 88.58 35.52"/><polygon class="cls-2" points="109.07 47.34 109.07 94.67 88.63 82.86 88.58 82.84 88.58 35.52 109.07 47.34"/><polygon class="cls-3" points="109.07 23.65 109.07 47.34 88.58 35.52 88.58 11.83 109.07 23.65"/><polygon class="cls-4" points="129.57 35.52 129.57 82.84 109.07 94.67 109.07 23.67 129.57 35.52"/><polygon class="cls-5" points="150.06 23.67 150.06 71.04 136.77 78.69 129.57 82.84 129.57 35.5 109.07 23.67 109.07 0 150.06 23.67"/><path class="cls-6" d="M19.56,147.33l-7.25-12.49H5.64v12.49H0V113H13.72a10.65,10.65,0,0,1,7.82,3.21,10.65,10.65,0,0,1,3.21,7.82,10.27,10.27,0,0,1-1.89,6A10.78,10.78,0,0,1,17.94,134l7.79,13.33Zm-13.92-29v11.47h8.08a5.07,5.07,0,0,0,3.83-1.67,6.08,6.08,0,0,0,0-8.13,5.07,5.07,0,0,0-3.83-1.67Z"/><path class="cls-6" d="M32.59,137.34a6.73,6.73,0,0,0,2.7,4.29,8.69,8.69,0,0,0,5.14,1.49,7.16,7.16,0,0,0,6.32-3l4.37,2.55Q47.49,148,40.38,148a13.08,13.08,0,0,1-9.65-3.65,12.47,12.47,0,0,1-3.68-9.24A12.53,12.53,0,0,1,40,122.19,11.46,11.46,0,0,1,48.84,126a13.08,13.08,0,0,1,3.45,9.16,16.38,16.38,0,0,1-.19,2.21ZM32.54,133H47a6.79,6.79,0,0,0-7-6,7.43,7.43,0,0,0-4.9,1.61A7.29,7.29,0,0,0,32.54,133Z"/><path class="cls-6" d="M72.58,122.83h5.78l-9.55,24.5H62.68l-9.55-24.5h5.78l6.86,18.68Z"/><path class="cls-6" d="M92.28,148a12.57,12.57,0,0,1-9.16-3.72,13,13,0,0,1,0-18.33,13.15,13.15,0,0,1,18.35,0,13.07,13.07,0,0,1,0,18.33A12.54,12.54,0,0,1,92.28,148Zm-5.44-7.35a7.8,7.8,0,0,0,10.88,0,8,8,0,0,0,0-11.08,7.83,7.83,0,0,0-10.88,0,8.08,8.08,0,0,0,0,11.08Z"/><path class="cls-6" d="M123.84,113a15.47,15.47,0,0,1,11.74,5,18.22,18.22,0,0,1,0,24.38,15.42,15.42,0,0,1-11.74,5H110.37V113Zm0,28.91a10.26,10.26,0,0,0,7.92-3.33,13.17,13.17,0,0,0,0-16.88,10.28,10.28,0,0,0-7.92-3.31H116v23.52Z"/><path class="cls-6" d="M164.47,122.83h5.3v24.5h-5.3v-3.52A9.92,9.92,0,0,1,155.9,148a11.5,11.5,0,0,1-8.63-3.75,13.48,13.48,0,0,1,0-18.3,11.55,11.55,0,0,1,8.63-3.73,9.94,9.94,0,0,1,8.57,4.12Zm-13.28,17.86a8,8,0,0,0,11.08,0,8.25,8.25,0,0,0,0-11.22,8,8,0,0,0-11.08,0,8.25,8.25,0,0,0,0,11.22Z"/><path class="cls-6" d="M189.62,127.93h-6.08v11.76a3,3,0,0,0,.68,2.18,3.05,3.05,0,0,0,2,.73,31.78,31.78,0,0,0,3.36,0v4.75c-4.06.49-7,.14-8.73-1.05s-2.65-3.39-2.65-6.59V127.93h-4.5v-5.1h4.5v-5.29l5.3-1.57v6.86h6.08Z"/><path class="cls-6" d="M212.84,122.83h5.3v24.5h-5.3v-3.52a9.92,9.92,0,0,1-8.57,4.16,11.5,11.5,0,0,1-8.63-3.75,13.48,13.48,0,0,1,0-18.3,11.55,11.55,0,0,1,8.63-3.73,9.94,9.94,0,0,1,8.57,4.12Zm-13.28,17.86a8,8,0,0,0,11.08,0,8.25,8.25,0,0,0,0-11.22,8,8,0,0,0-11.08,0,8.25,8.25,0,0,0,0,11.22Z"/></g></g></svg>