<svg xmlns="http://www.w3.org/2000/svg" viewBox="0 0 325.15 73.92"><defs><style>.cls-1{fill:#3d21a3;}.cls-2{fill:#9025c1;}.cls-3{fill:#d82ac8;}.cls-4{fill:#ff768d;}.cls-5{fill:#ffce00;}.cls-6{fill:#fff;}</style></defs><g id="Layer_2" data-name="Layer 2"><g id="Layer_1-2" data-name="Layer 1"><polygon class="cls-1" points="16.01 27.73 16.01 64.69 10.4 61.45 0 55.45 0 18.48 16.01 27.73"/><polygon class="cls-2" points="32.01 36.97 32.01 73.92 16.05 64.7 16.01 64.69 16.01 27.73 32.01 36.97"/><polygon class="cls-3" points="32.01 18.47 32.01 36.97 16.01 27.73 16.01 9.23 32.01 18.47"/><polygon class="cls-4" points="48.02 27.73 48.02 64.69 32.01 73.92 32.01 18.48 48.02 27.73"/><polygon class="cls-5" points="64.02 18.48 64.02 55.47 53.64 61.45 48.02 64.69 48.02 27.72 32.01 18.48 32.01 0 64.02 18.48"/><path class="cls-6" d="M102.54,55.83l-8.12-14H86.94v14H80.62V17.38H96a12.26,12.26,0,0,1,12.36,12.36,11.57,11.57,0,0,1-2.11,6.73,12.14,12.14,0,0,1-5.52,4.42l8.73,14.94ZM86.94,23.31V36.16H96a5.67,5.67,0,0,0,4.29-1.86,6.79,6.79,0,0,0,0-9.12A5.65,5.65,0,0,0,96,23.31Z"/><path class="cls-6" d="M117.15,44.62a7.52,7.52,0,0,0,3,4.81,9.66,9.66,0,0,0,5.76,1.68A8.06,8.06,0,0,0,133,47.7l4.89,2.86q-4.06,6-12,6a14.67,14.67,0,0,1-10.82-4.1A14,14,0,0,1,111,42.1,14.12,14.12,0,0,1,115,31.8a14,14,0,0,1,10.44-4.15,12.83,12.83,0,0,1,9.91,4.23,14.63,14.63,0,0,1,3.88,10.27,19.28,19.28,0,0,1-.22,2.47Zm-.05-4.83h16.15A7.65,7.65,0,0,0,125.39,33a8.34,8.34,0,0,0-5.49,1.82A8.14,8.14,0,0,0,117.1,39.79Z"/><path class="cls-6" d="M162,28.36h6.48L157.75,55.83h-6.87L140.17,28.36h6.48l7.7,20.94Z"/><path class="cls-6" d="M184.07,56.55a14.13,14.13,0,0,1-10.28-4.18,13.87,13.87,0,0,1-4.23-10.27,13.89,13.89,0,0,1,4.23-10.28,14.78,14.78,0,0,1,20.58,0,13.94,13.94,0,0,1,4.2,10.28,13.92,13.92,0,0,1-4.2,10.27A14.08,14.08,0,0,1,184.07,56.55ZM178,48.31a8.77,8.77,0,0,0,12.2,0,8.46,8.46,0,0,0,2.47-6.21,8.46,8.46,0,0,0-2.47-6.21,8.77,8.77,0,0,0-12.2,0,8.42,8.42,0,0,0-2.47,6.21A8.42,8.42,0,0,0,178,48.31Z"/><path class="cls-6" d="M219.45,17.38a17.35,17.35,0,0,1,13.16,5.54,19.18,19.18,0,0,1,5.24,13.68,19.22,19.22,0,0,1-5.24,13.66,17.34,17.34,0,0,1-13.16,5.57H204.34V17.38Zm0,32.41a11.51,11.51,0,0,0,8.87-3.74,13.42,13.42,0,0,0,3.43-9.45,13.38,13.38,0,0,0-3.43-9.47,11.56,11.56,0,0,0-8.87-3.71h-8.79V49.79Z"/><path class="cls-6" d="M265,28.36h5.93V55.83H265V51.88a11.12,11.12,0,0,1-9.61,4.67,12.84,12.84,0,0,1-9.67-4.21,14.24,14.24,0,0,1-4-10.24,14.26,14.26,0,0,1,4-10.28,12.91,12.91,0,0,1,9.67-4.17A11.17,11.17,0,0,1,265,32.26Zm-14.89,20a9,9,0,0,0,12.42,0A8.59,8.59,0,0,0,265,42.1a8.55,8.55,0,0,0-2.47-6.29,9,9,0,0,0-12.42,0,8.55,8.55,0,0,0-2.47,6.29A8.59,8.59,0,0,0,250.1,48.39Z"/><path class="cls-6" d="M293.18,34.08h-6.82V47.26a3.31,3.31,0,0,0,.77,2.45,3.43,3.43,0,0,0,2.28.82,37.25,37.25,0,0,0,3.77,0v5.33q-6.82.83-9.78-1.18t-3-7.39V34.08h-5.05V28.36h5.05V22.43l5.93-1.76v7.69h6.82Z"/><path class="cls-6" d="M319.21,28.36h5.94V55.83h-5.94V51.88a11.12,11.12,0,0,1-9.61,4.67,12.86,12.86,0,0,1-9.67-4.21,14.29,14.29,0,0,1-4-10.24,14.3,14.3,0,0,1,4-10.28,12.93,12.93,0,0,1,9.67-4.17,11.17,11.17,0,0,1,9.61,4.61Zm-14.88,20a9,9,0,0,0,12.41,0,8.59,8.59,0,0,0,2.47-6.29,8.55,8.55,0,0,0-2.47-6.29,9,9,0,0,0-12.41,0,8.56,8.56,0,0,0-2.48,6.29A8.59,8.59,0,0,0,304.33,48.39Z"/></g></g></svg>