<svg xmlns="http://www.w3.org/2000/svg" viewBox="0 0 138.66 138.66"><defs><style>.cls-1{fill:#fff;}.cls-2{fill:#3d21a3;}.cls-3{fill:#9025c1;}.cls-4{fill:#d82ac8;}.cls-5{fill:#ff768d;}.cls-6{fill:#ffce00;}</style></defs><g id="Layer_2" data-name="Layer 2"><g id="Layer_1-2" data-name="Layer 1"><rect class="cls-1" width="138.66" height="138.66" rx="27.28"/><polygon class="cls-2" points="49.83 58.08 49.83 103.13 42.98 99.18 30.3 91.88 30.3 46.8 49.83 58.08"/><polygon class="cls-3" points="69.33 69.34 69.33 114.39 49.87 103.15 49.83 103.13 49.83 58.08 69.33 69.34"/><polygon class="cls-4" points="69.33 46.78 69.33 69.34 49.83 58.08 49.83 35.52 69.33 46.78"/><polygon class="cls-5" points="88.85 58.08 88.85 103.13 69.33 114.39 69.33 46.8 88.85 58.08"/><polygon class="cls-6" points="108.35 46.8 108.35 91.89 95.7 99.18 88.85 103.13 88.85 58.06 69.33 46.8 69.33 24.26 108.35 46.8"/></g></g></svg>