<svg xmlns="http://www.w3.org/2000/svg" viewBox="0 0 210.26 142.63"><defs><style>.cls-1{fill:#3d21a3;}.cls-2{fill:#9025c1;}.cls-3{fill:#d82ac8;}.cls-4{fill:#ff768d;}.cls-5{fill:#ffce00;}.cls-6{fill:#0a0a56;}</style></defs><g id="Layer_2" data-name="Layer 2"><g id="Layer_1-2" data-name="Layer 1"><polygon class="cls-1" points="85.38 34.24 85.38 79.85 78.45 75.85 65.62 68.45 65.62 22.82 85.38 34.24"/><polygon class="cls-2" points="105.13 45.63 105.13 91.25 85.42 79.87 85.38 79.85 85.38 34.24 105.13 45.63"/><polygon class="cls-3" points="105.13 22.8 105.13 45.63 85.38 34.24 85.38 11.4 105.13 22.8"/><polygon class="cls-4" points="124.89 34.24 124.89 79.85 105.13 91.25 105.13 22.82 124.89 34.24"/><polygon class="cls-5" points="144.64 22.82 144.64 68.47 131.83 75.85 124.89 79.85 124.89 34.22 105.13 22.82 105.13 0 144.64 22.82"/><path class="cls-6" d="M18.85,142l-7-12H5.43v12H0V109H13.23A10.25,10.25,0,0,1,20.76,112a10.27,10.27,0,0,1,3.1,7.53A9.94,9.94,0,0,1,22,125.36a10.39,10.39,0,0,1-4.75,3.8L24.8,142Zm-13.42-28v11h7.8a4.86,4.86,0,0,0,3.68-1.6,5.86,5.86,0,0,0,0-7.85,4.86,4.86,0,0,0-3.68-1.6Z"/><path class="cls-6" d="M31.41,132.38a6.52,6.52,0,0,0,2.6,4.13A8.37,8.37,0,0,0,39,138a7,7,0,0,0,6.1-2.93l4.2,2.46q-3.5,5.15-10.35,5.15a12.64,12.64,0,0,1-9.3-3.52,12.43,12.43,0,0,1,8.93-21.33,11,11,0,0,1,8.52,3.64,12.6,12.6,0,0,1,3.33,8.83,15.26,15.26,0,0,1-.19,2.13Zm0-4.16H45.26a6.57,6.57,0,0,0-6.76-5.81A7.14,7.14,0,0,0,33.78,124,7,7,0,0,0,31.37,128.22Z"/><path class="cls-6" d="M70,118.39h5.57L66.32,142h-5.9l-9.21-23.62h5.57l6.62,18Z"/><path class="cls-6" d="M89,142.63A12.11,12.11,0,0,1,80.12,139a12.54,12.54,0,0,1,0-17.67,12.69,12.69,0,0,1,17.69,0,12.62,12.62,0,0,1,0,17.67A12.1,12.1,0,0,1,89,142.63Zm-5.24-7.09a7.51,7.51,0,0,0,10.48,0,7.75,7.75,0,0,0,0-10.67,7.51,7.51,0,0,0-10.48,0,7.75,7.75,0,0,0,0,10.67Z"/><path class="cls-6" d="M119.37,109a14.93,14.93,0,0,1,11.32,4.77,17.56,17.56,0,0,1,0,23.5A14.91,14.91,0,0,1,119.37,142h-13V109Zm0,27.87A9.87,9.87,0,0,0,127,133.6a12.69,12.69,0,0,0,0-16.27,10,10,0,0,0-7.63-3.19h-7.56v22.68Z"/><path class="cls-6" d="M158.53,118.39h5.1V142h-5.1v-3.4a9.56,9.56,0,0,1-8.27,4A11.08,11.08,0,0,1,142,139a13,13,0,0,1,0-17.64,11.12,11.12,0,0,1,8.31-3.59,9.59,9.59,0,0,1,8.27,4Zm-12.8,17.22a7.71,7.71,0,0,0,10.68,0,8,8,0,0,0,0-10.82,7.71,7.71,0,0,0-10.68,0,8,8,0,0,0,0,10.82Z"/><path class="cls-6" d="M182.77,123.31h-5.86v11.33a2.85,2.85,0,0,0,.66,2.11,2.94,2.94,0,0,0,2,.7,32.3,32.3,0,0,0,3.24,0V142c-3.91.47-6.71.14-8.41-1s-2.55-3.27-2.55-6.36V123.31h-4.35v-4.92h4.35v-5.1l5.1-1.51v6.61h5.86Z"/><path class="cls-6" d="M205.15,118.39h5.11V142h-5.11v-3.4a9.54,9.54,0,0,1-8.26,4,11.08,11.08,0,0,1-8.32-3.62,13,13,0,0,1,0-17.64,11.13,11.13,0,0,1,8.32-3.59,9.57,9.57,0,0,1,8.26,4Zm-12.8,17.22a7.71,7.71,0,0,0,10.68,0,8,8,0,0,0,0-10.82,7.71,7.71,0,0,0-10.68,0,8,8,0,0,0,0,10.82Z"/></g></g></svg>